<svg xmlns="http://www.w3.org/2000/svg" xmlns:xlink="http://www.w3.org/1999/xlink" version="1.0" id="katman_1" x="0px" y="0px" viewBox="0 0 1639.22 1227.94" style="enable-background:new 0 0 1639.22 1227.94;" xml:space="preserve" width="200" height="200">
<style type="text/css">
	.st0{fill:#E32851;}
	.st1{fill:#FF932C;}
	.st2{fill:#0088D9;}
</style>
<path class="st0" d="M603.15,451.3c0,20.69-17.41,37.47-38.88,37.47s-38.88-16.78-38.88-37.47s17.41-37.47,38.88-37.47  S603.15,430.61,603.15,451.3z"/>
<path class="st0" d="M111.65,601.48V459.96c0.3-1.77,0.97-3,2.03-3.68c20.38-13.2,40.76-26.41,61.15-39.6  c0.54-0.35,1.23-0.44,2.07-0.27c1.84,0.37,2.76,1.51,2.76,3.42c0.01,34.48,0.01,69.05,0,103.71c0,0.47,0.5,0.77,0.92,0.54  c41.84-23.14,83.89-46.39,126.15-69.74c2.25-1.24,4.87,0.31,4.87,2.91c0.04,22.52,0.04,44.58-0.01,66.17c-0.01,2-1.14,3.7-2.84,4.64  c-43.1,23.82-85.98,47.53-128.62,71.13c-0.19,0.1-0.32,0.28-0.4,0.53c-0.1,0.32-0.14,0.67-0.11,1.05  c0.75,13.23,5.83,24.41,15.26,33.53c19.89,19.25,51.68,17.81,70.19-2.76c7.24-8.04,11.38-17.7,12.42-28.98  c0.17-1.81,1.74-2.79,3.45-2.79c19.89,0.01,40.27,0.01,61.13,0c2.24,0,3.47,1.57,3.37,3.83c-0.78,18.04-5.37,34.88-13.78,50.53  c-16.4,30.52-45.54,52.35-79.37,59.26c-46.26,9.46-93.18-9.44-119.92-48.06c-12.15-17.56-18.94-37.17-20.37-58.85  C111.9,604.82,111.78,603.15,111.65,601.48z"/>
<path class="st0" d="M431.72,530.28c0.17,0.1,0.35,0.12,0.53,0.07c0.15-0.05,0.28-0.14,0.39-0.28  c15.67-20.86,42.09-28.2,67.11-25.96c2.63,0.23,5.3,0.79,8.01,1.65c1.23,0.39,2.22,1.54,2.22,2.87c0.01,19.1,0.01,38.38,0.01,57.84  c0,2.84-2.55,3.61-4.87,2.96c-8.42-2.37-16.97-3.41-25.65-3.14c-13.78,0.43-26.22,5.84-34.56,16.63  c-11.09,14.36-13.5,34.75-13.48,52.39c0.02,24.22,0.01,48.83-0.03,73.84c-0.01,1.62-1.34,3.02-2.93,3.03  c-21.26,0.04-41.95,0.04-62.03-0.01c-1.57-0.01-2.89-1.35-2.89-2.9c-0.04-66.04-0.04-132.52-0.02-199.43c0-2.19,1.89-3.01,3.92-3  c20.15,0.07,40.28,0.08,60.39,0.03c2.27-0.01,3.64,1.19,3.62,3.46c-0.04,6.78-0.04,13.28,0,19.5  C431.47,530.01,431.57,530.18,431.72,530.28z"/>
<path class="st1" d="M989.15,530.11c0.15-0.14,0.23-0.33,0.23-0.54c0.02-6.95,0.01-13.4-0.01-19.34c-0.01-1.8,1.15-3.34,3.06-3.34  c21.34-0.01,41.95-0.01,61.83-0.01c1.74,0,3.03,1.39,3.03,3.09c0,66.82,0,133.23,0,199.23c0,1.63-1.44,2.99-3.03,2.99  c-20.47,0-41.07,0-61.8,0.01c-2.09,0-3.1-1.71-3.1-3.59c0.02-5.18,0.03-10.32,0.02-15.42c0-0.11-0.03-0.22-0.07-0.32  c-0.17-0.36-0.41-0.5-0.71-0.41c-0.09,0.03-0.16,0.07-0.22,0.14c-16.33,17.59-40.68,24.67-64.33,22.97  c-20.18-1.45-38.02-8.38-53.52-20.81c-18.69-14.98-30.03-37.24-34.06-60.71c-2.3-13.4-2.69-27.14-1.19-40.66  c2.57-23.1,11.37-44.49,27.52-60.92c20-20.34,48.92-30.33,77.16-28.5c18.4,1.2,39.64,8.49,48.21,26c0.07,0.15,0.19,0.25,0.34,0.31  C988.76,530.34,988.96,530.3,989.15,530.11z M992.53,604.94c-1.78-24.33-18.19-42.47-43.22-43.49c-3.42-0.14-6.56-0.01-9.42,0.41  c-15.05,2.15-26.08,9.68-33.08,22.58c-1.64,3.03-2.92,6.31-3.83,9.84c-3.09,12.01-2.66,23.64,1.28,34.9  c2.14,6.12,5.68,11.6,10.63,16.46c12.87,12.65,34.05,14.94,50.34,8.68c11.74-4.5,20.34-13.98,24.51-25.98  C992.22,621.2,993.15,613.39,992.53,604.94z"/>
<path class="st2" d="M1176.2,814.11H1166c-27.81-1.46-51.8-11.39-71.99-29.79c-5.07-4.62-10.21-10.35-15.43-17.2  c-1.38-1.8-1.8-4.14,0.28-5.49c17.22-11.14,34.49-22.31,51.81-33.51c1.39-0.89,3.22-0.61,4.29,0.66  c8.9,10.53,20.15,16.33,33.74,17.39c15.9,1.24,31.93-5.88,41.93-18.01c7.32-8.88,10.83-19.75,10.77-31.46  c-0.01-2.57-0.01-5.28-0.01-8.12c0-0.51-0.61-0.79-0.99-0.44c-11.48,10.53-28.83,14.91-44.21,15.6  c-24.4,1.08-49.04-5.95-67.82-21.36c-20.23-16.6-30.38-40.86-32.49-66.79c-1.3-16-0.1-32.58,4.56-47.57  c6.28-20.17,17.76-36.1,34.44-47.78c18.81-13.17,43.38-19,65.99-15.53c15.86,2.44,32.1,10.16,39.34,25.21  c0.16,0.32,0.54,0.45,0.86,0.3c0.21-0.1,0.31-0.27,0.31-0.5c0.02-6.41,0.02-12.9,0-19.46c-0.01-2.01,1.33-3.36,3.34-3.36  c20.39,0,40.77-0.01,61.15-0.02c2.82,0,3.56,1.81,3.56,4.34c-0.04,61.63-0.05,123.35-0.03,185.19c0,1.61-0.09,3.25-0.15,4.87  c-0.68,22.37-6.85,42.42-18.52,60.16c-9.4,14.29-21.58,25.98-36.54,35.08C1216.68,807.15,1197.35,813.02,1176.2,814.11z   M1143.66,609.75c2.72,24.91,21.96,39.43,46.61,36.86c16.22-1.7,28.88-11.93,33.73-27.61c2.28-7.37,2.83-15.19,1.65-23.47  c-2.58-18.13-14.85-32.17-33.39-35.01c-14.34-2.19-28.84,1.71-38.54,12.71C1145.03,583.07,1142.26,596.99,1143.66,609.75z"/>
<path class="st2" d="M1527.68,605.1v9.32c-0.2,3.04-0.48,6.07-0.85,9.09c-1.52,12.6-5.14,24.39-10.86,35.37  c-23.87,45.79-76.23,64.27-125.07,54.31c-46.71-9.52-80.51-45.84-84.54-93.73c-3.08-36.65,11.23-72.19,41.16-94.13  c15.73-11.52,34.18-18.37,53.66-20.69c44.26-5.28,88.35,11.71,111.62,50.05c7.56,12.46,12.25,26.22,14.08,41.27  C1527.16,598.34,1527.43,601.39,1527.68,605.1z M1458.48,614.56c1.32-19.12-5.04-39.6-23.13-48.72c-3.2-1.61-6.56-2.75-10.07-3.4  c-15.94-2.96-31.43,2.14-41.05,15.3c-7.88,10.79-10.22,25.47-8.91,38.75c2.18,22.21,15.65,40.19,39.24,41.32  c11.29,0.55,20.96-2.74,29.01-9.83C1453.01,639.66,1457.62,627.06,1458.48,614.56z"/>
<path class="st1" d="M731.1,616.97c0.25,0.12,0.49,0.11,0.69-0.02c0.13-0.08,0.24-0.25,0.33-0.51  c13.45-35.81,26.9-71.63,40.34-107.45c0.56-1.5,1.7-2.12,3.2-2.12c21.51,0.01,43.33,0.02,65.46,0.03c2.45,0,3.49,2.6,2.66,4.63  c-27.12,66.46-54.14,132.69-81.07,198.7c-0.4,0.98-1.43,1.95-2.53,1.95c-19.78,0.02-39.67,0.03-59.67,0.03  c-1.38,0-2.42-0.75-2.93-2.02c-26.87-66.11-53.8-132.4-80.79-198.89c-0.81-1.99,0.5-4.4,2.77-4.4c22.25-0.01,44.75-0.01,67.5-0.01  c1.92,0,2.61,1.04,3.29,2.85c13.52,35.69,27.03,71.36,40.54,107.01C730.93,616.85,731,616.93,731.1,616.97z"/>
<path class="st0" d="M598.29,709.03c0,1.74-1.41,3.16-3.16,3.16h-61.71c-1.74,0-3.16-1.41-3.16-3.16v-199  c0-1.74,1.41-3.16,3.16-3.16h61.71c1.74,0,3.16,1.41,3.16,3.16V709.03z"/>
</svg>