<svg xmlns="http://www.w3.org/2000/svg" xmlns:xlink="http://www.w3.org/1999/xlink" version="1.0" id="katman_1" x="0px" y="0px" viewBox="0 0 841.89 595.28" style="enable-background:new 0 0 841.89 595.28;" xml:space="preserve" width="200" height="200">
<style type="text/css">
	.st0{fill:#E9497C;}
</style>
<g>
	<path class="st0" d="M775.57,372.71h-36.16c-0.15,0-0.29-0.06-0.39-0.16c-0.11-0.1-0.16-0.25-0.16-0.39v-13.27   c0-0.15,0.06-0.28,0.17-0.39c0.1-0.1,0.24-0.16,0.39-0.17h33.11c0.39,0,0.76-0.15,1.04-0.43c0.27-0.28,0.43-0.65,0.43-1.04v-18.21   c0-0.39-0.16-0.76-0.43-1.04c-0.28-0.28-0.65-0.43-1.04-0.43h-33.11c-0.15,0-0.29-0.06-0.39-0.16c-0.11-0.1-0.16-0.25-0.16-0.39   v-10.71c0-0.15,0.06-0.29,0.16-0.39c0.1-0.1,0.25-0.16,0.39-0.16h36.18c0.39,0,0.76-0.15,1.04-0.43c0.27-0.28,0.43-0.65,0.43-1.04   v-18.21c0-0.19-0.03-0.39-0.11-0.57c-0.07-0.18-0.18-0.34-0.32-0.48c-0.14-0.14-0.3-0.25-0.48-0.32c-0.18-0.07-0.37-0.11-0.57-0.11   h-68.48c-0.39,0-0.76,0.15-1.04,0.43c-0.28,0.28-0.43,0.65-0.43,1.04v86.65c0,0.39,0.16,0.76,0.43,1.04   c0.27,0.28,0.65,0.43,1.04,0.43h68.57c0.19,0,0.38-0.03,0.56-0.11c0.18-0.07,0.34-0.18,0.48-0.32c0.14-0.14,0.25-0.3,0.32-0.48   c0.07-0.18,0.11-0.37,0.11-0.57v-18.21c0-0.39-0.16-0.76-0.43-1.04c-0.27-0.28-0.65-0.43-1.04-0.43"/>
	<path class="st0" d="M382.06,290.51h30.39c0.39-0.01,0.76-0.16,1.03-0.44c0.27-0.27,0.43-0.64,0.43-1.03v-86.67   c0-0.39-0.16-0.76-0.43-1.03c-0.27-0.27-0.65-0.43-1.03-0.44h-30.39c-0.19,0-0.38,0.04-0.56,0.11c-0.18,0.07-0.34,0.18-0.48,0.32   c-0.14,0.14-0.25,0.3-0.32,0.48c-0.07,0.18-0.11,0.37-0.11,0.56v86.67c0,0.19,0.04,0.38,0.11,0.56c0.07,0.18,0.18,0.34,0.32,0.48   c0.14,0.14,0.3,0.24,0.48,0.32C381.67,290.47,381.86,290.51,382.06,290.51z"/>
	<path class="st0" d="M463.81,304.27h-30.39c-0.39,0-0.76,0.15-1.04,0.43c-0.27,0.28-0.43,0.65-0.43,1.04v30.88   c0,0.15-0.06,0.29-0.16,0.39c-0.11,0.1-0.25,0.16-0.39,0.16h-16.88c-0.15,0-0.29-0.06-0.39-0.16c-0.1-0.1-0.16-0.25-0.16-0.39   v-30.95c0-0.19-0.04-0.38-0.11-0.56s-0.18-0.34-0.32-0.48c-0.14-0.14-0.3-0.24-0.48-0.32c-0.18-0.07-0.37-0.11-0.56-0.11h-30.43   c-0.2,0-0.39,0.03-0.57,0.11c-0.18,0.07-0.34,0.18-0.48,0.32c-0.14,0.14-0.25,0.3-0.32,0.48c-0.07,0.18-0.11,0.37-0.11,0.57v86.65   c0,0.19,0.03,0.39,0.11,0.57c0.07,0.18,0.18,0.34,0.32,0.48c0.14,0.14,0.3,0.25,0.48,0.32c0.18,0.07,0.37,0.11,0.57,0.11h30.39   c0.19,0,0.38-0.04,0.56-0.11c0.18-0.07,0.34-0.18,0.48-0.32c0.14-0.14,0.25-0.3,0.32-0.48c0.07-0.18,0.11-0.37,0.11-0.56v-33.44   c0-0.15,0.06-0.29,0.16-0.39c0.1-0.1,0.24-0.16,0.39-0.16h16.88c0.15,0,0.29,0.06,0.39,0.16c0.11,0.1,0.16,0.25,0.16,0.39v33.4   c0,0.39,0.16,0.76,0.43,1.04c0.27,0.28,0.65,0.43,1.04,0.43h30.39c0.39,0,0.76-0.15,1.04-0.43c0.27-0.28,0.43-0.65,0.43-1.04   v-86.54c0-0.39-0.16-0.76-0.43-1.04c-0.27-0.28-0.65-0.43-1.04-0.43"/>
	<path class="st0" d="M594.63,222.07h19.35c0.15,0.01,0.29,0.07,0.39,0.18c0.1,0.11,0.16,0.25,0.16,0.4v66.39   c0,0.19,0.03,0.39,0.11,0.57c0.07,0.18,0.18,0.34,0.32,0.48c0.14,0.14,0.3,0.25,0.48,0.32c0.18,0.07,0.37,0.11,0.56,0.11h30.39   c0.39,0,0.76-0.15,1.04-0.43c0.27-0.28,0.43-0.65,0.43-1.04v-66.39c0-0.15,0.06-0.29,0.16-0.4c0.1-0.11,0.24-0.17,0.39-0.18h19.35   c0.19,0,0.39-0.03,0.57-0.11c0.18-0.07,0.34-0.18,0.48-0.32s0.25-0.3,0.32-0.48s0.11-0.37,0.11-0.57v-18.23   c0-0.39-0.16-0.76-0.43-1.04c-0.27-0.28-0.65-0.43-1.04-0.43h-73.14c-0.39,0-0.77,0.15-1.05,0.43s-0.44,0.65-0.44,1.04v18.23   c0,0.19,0.04,0.39,0.11,0.57c0.07,0.18,0.18,0.34,0.33,0.48c0.14,0.14,0.3,0.24,0.48,0.32   C594.25,222.04,594.44,222.07,594.63,222.07z"/>
	<path class="st0" d="M299.68,290.51h30.39c0.39-0.01,0.76-0.16,1.03-0.44s0.43-0.64,0.44-1.03v-33.4c0-0.15,0.06-0.29,0.16-0.39   c0.1-0.1,0.25-0.16,0.39-0.16h33.4c0.39-0.01,0.76-0.16,1.03-0.44c0.27-0.27,0.43-0.64,0.44-1.03v-18.23   c0-0.39-0.16-0.76-0.43-1.04c-0.28-0.28-0.65-0.43-1.04-0.43h-33.4c-0.15,0-0.29-0.06-0.39-0.16c-0.11-0.1-0.16-0.25-0.16-0.39   v-10.71c0-0.15,0.06-0.29,0.16-0.39c0.1-0.1,0.25-0.16,0.39-0.16h36.6c0.39-0.01,0.76-0.16,1.03-0.44   c0.27-0.27,0.43-0.64,0.43-1.03v-18.23c0.01-0.2-0.02-0.4-0.08-0.59c-0.07-0.19-0.17-0.36-0.31-0.51c-0.14-0.15-0.3-0.27-0.49-0.35   s-0.38-0.13-0.59-0.13h-69.02c-0.39,0.01-0.76,0.16-1.03,0.44c-0.27,0.27-0.43,0.64-0.44,1.03v86.67c0.01,0.39,0.16,0.76,0.44,1.03   c0.27,0.27,0.64,0.43,1.03,0.44"/>
	<path class="st0" d="M457.75,220.07c0-0.15,0.06-0.29,0.16-0.39c0.11-0.1,0.25-0.16,0.39-0.16h8.13c5.97,0,9.69,2.98,9.69,8.46   c0,5.48-3.72,8.44-9.69,8.44h-8.13c-0.15,0-0.29-0.06-0.39-0.16c-0.1-0.1-0.16-0.25-0.16-0.39V220.07z M425.89,290.51h30.37   c0.2,0,0.39-0.03,0.57-0.11c0.18-0.07,0.35-0.18,0.49-0.32c0.14-0.14,0.25-0.3,0.33-0.48c0.07-0.18,0.11-0.37,0.11-0.57v-31.5   c0-0.15,0.06-0.29,0.16-0.39c0.11-0.1,0.25-0.16,0.39-0.16h3.43c0.11,0,0.22,0.03,0.31,0.09c0.09,0.06,0.16,0.14,0.21,0.24   l13.8,32.3c0.11,0.27,0.3,0.5,0.54,0.66c0.24,0.16,0.53,0.24,0.82,0.23h33.77c0.27,0.01,0.53-0.05,0.76-0.17   c0.23-0.13,0.43-0.32,0.56-0.55c0.13-0.23,0.2-0.49,0.2-0.76c-0.01-0.27-0.09-0.53-0.23-0.75l-21.06-40.07   c-0.04-0.07-0.06-0.16-0.07-0.24c0-0.08,0.01-0.17,0.05-0.25c0.04-0.08,0.09-0.15,0.15-0.2c0.06-0.05,0.14-0.09,0.22-0.11   c9.73-2.65,16.1-11.29,16.1-22.53c0-14.23-10.78-24.13-26.89-24.13h-54.88c-0.19,0-0.38,0.03-0.56,0.11   c-0.18,0.07-0.34,0.18-0.48,0.32c-0.14,0.14-0.25,0.3-0.32,0.48c-0.07,0.18-0.11,0.37-0.11,0.57v86.67c0,0.19,0.03,0.39,0.11,0.57   c0.07,0.18,0.18,0.34,0.32,0.48c0.14,0.14,0.3,0.25,0.48,0.32c0.18,0.07,0.37,0.11,0.56,0.11"/>
	<path class="st0" d="M528.99,287.41c7.51,3.46,15.69,5.22,23.96,5.14c24.25,0,41.19-13.89,41.19-33.77   c0.13-3.3-0.43-6.59-1.65-9.66c-1.22-3.07-3.08-5.85-5.45-8.15c-4.83-4.74-12.2-8.33-22.51-10.98   c-10.75-2.76-14.34-4.32-14.34-8.08c0-3.41,2.83-5.14,8.41-5.14c7.4,0.08,14.57,2.54,20.46,7.01c0.1,0.07,0.2,0.13,0.32,0.16   c0.11,0.03,0.24,0.03,0.35,0.01c0.12-0.02,0.23-0.07,0.33-0.13c0.1-0.07,0.18-0.16,0.24-0.26l7.35-12c0.19-0.32,0.25-0.7,0.18-1.07   c-0.07-0.37-0.28-0.69-0.58-0.91c-9.59-7.26-21.37-11.04-33.39-10.73c-11.58,0-21.2,2.6-27.87,7.48c-3.22,2.31-5.83,5.38-7.6,8.93   c-1.77,3.55-2.64,7.48-2.54,11.44c0,11.73,7.28,19.44,22.89,24.22l3.58,1.07c6.9,1.96,15.58,4.45,15.58,10.24   c0,4.99-6.23,5.52-8.9,5.52c-8.73,0-19.24-4.61-26.45-11.56c-0.09-0.09-0.2-0.16-0.32-0.21c-0.12-0.04-0.26-0.06-0.38-0.04   c-0.13,0.02-0.25,0.06-0.36,0.13c-0.11,0.07-0.2,0.17-0.27,0.28l-9.6,16.32c-0.16,0.26-0.23,0.57-0.21,0.88   c0.03,0.31,0.16,0.6,0.36,0.83C516.56,279.87,522.42,284.31,528.99,287.41z"/>
	<path class="st0" d="M603.89,304.27h-30.37c-0.19,0-0.39,0.03-0.57,0.11c-0.18,0.07-0.34,0.18-0.49,0.32   c-0.14,0.14-0.25,0.3-0.32,0.48c-0.08,0.18-0.11,0.37-0.11,0.57v86.65c0,0.2,0.04,0.39,0.11,0.57c0.07,0.18,0.18,0.34,0.32,0.48   c0.14,0.14,0.3,0.24,0.49,0.32c0.18,0.07,0.38,0.11,0.57,0.11h30.37c0.19,0,0.39-0.03,0.57-0.11c0.18-0.07,0.34-0.18,0.48-0.32   c0.14-0.14,0.25-0.3,0.32-0.48c0.07-0.18,0.11-0.37,0.11-0.57v-86.65c0-0.19-0.03-0.39-0.11-0.57c-0.07-0.18-0.18-0.34-0.32-0.48   c-0.14-0.14-0.3-0.25-0.48-0.32C604.28,304.3,604.09,304.26,603.89,304.27z"/>
	<path class="st0" d="M518.78,372.8c-7.15,0-12.6-8.04-12.6-23.84c0-15.81,5.37-23.62,12.4-23.62c7.04,0,12.6,8.04,12.6,23.82   S525.72,372.8,518.78,372.8z M518.78,302.13c-27.52,0-46.36,18.43-46.36,47.18c0,28.25,18.95,46.75,46.11,46.75   c27.52,0,46.36-18.41,46.36-46.91c0-28.5-18.95-46.93-46.11-46.93"/>
	<path class="st0" d="M374.22,355.23h-19.88c-0.28,0-0.56,0.11-0.78,0.29c-0.22,0.18-0.37,0.43-0.43,0.71   c-0.69,3.45-3.83,14.69-15.36,14.69c-9.64,0-15.58-8.91-15.58-23.04c0-3.56,0.33-22.66,11.13-22.66c8.91,0,10.04,13.76,10.15,16.65   c0.01,0.15,0.08,0.28,0.18,0.38c0.11,0.1,0.25,0.15,0.39,0.15h27.96c0.28,0,0.55-0.06,0.8-0.17c0.25-0.12,0.47-0.29,0.65-0.5   c0.18-0.21,0.3-0.46,0.37-0.73c0.07-0.27,0.08-0.55,0.02-0.82c-1.34-8.35-8.44-38.18-41.85-38.18c-25.89,0-43.97,19.44-43.97,47.24   c0,13.63,4.23,25.34,12.2,33.82c4.07,4.24,8.97,7.58,14.4,9.81c5.43,2.23,11.27,3.3,17.14,3.14c35.82,0,42.5-33.71,43.44-39.87   c0.02-0.12,0.01-0.24-0.03-0.36c-0.04-0.12-0.1-0.23-0.17-0.32c-0.08-0.09-0.18-0.17-0.29-0.22c-0.11-0.05-0.23-0.08-0.35-0.08"/>
	<path class="st0" d="M698.87,355.23h-19.88c-0.29,0-0.56,0.1-0.79,0.29c-0.22,0.18-0.38,0.43-0.44,0.72   c-0.67,3.45-3.81,14.69-15.34,14.69c-9.64,0-15.58-8.91-15.58-23.04c0-3.56,0.33-22.66,11.13-22.66c8.9,0,10.04,13.76,10.15,16.65   c0.01,0.15,0.08,0.28,0.18,0.38c0.11,0.1,0.25,0.15,0.39,0.15h27.96c0.28,0,0.55-0.06,0.8-0.17c0.25-0.12,0.47-0.29,0.65-0.5   c0.18-0.21,0.3-0.46,0.37-0.73c0.07-0.27,0.08-0.55,0.02-0.82c-1.34-8.35-8.44-38.18-41.86-38.18c-25.89,0-43.97,19.44-43.97,47.24   c0,13.63,4.23,25.34,12.2,33.82c4.06,4.24,8.97,7.59,14.4,9.82c5.43,2.23,11.27,3.3,17.15,3.14c35.82,0,42.5-33.71,43.44-39.87   c0.02-0.12,0.01-0.24-0.03-0.36c-0.04-0.12-0.1-0.23-0.17-0.32c-0.08-0.09-0.18-0.17-0.29-0.22c-0.11-0.05-0.23-0.08-0.35-0.08"/>
	<path class="st0" d="M136.62,226.52c3.34-0.01,6.55-1.34,8.91-3.71c2.36-2.37,3.69-5.57,3.69-8.92c0-3.35-1.33-6.56-3.69-8.93   s-5.57-3.71-8.91-3.72c-3.35,0.01-6.55,1.35-8.91,3.72s-3.69,5.58-3.69,8.93c0,3.34,1.33,6.55,3.69,8.92   C130.07,225.18,133.27,226.52,136.62,226.52z"/>
	<path class="st0" d="M66.36,290.13h86.38c0.21,0,0.42-0.04,0.61-0.13c0.19-0.09,0.36-0.22,0.5-0.38c0.14-0.16,0.24-0.34,0.3-0.54   c0.06-0.2,0.08-0.41,0.05-0.62c-0.18-1.22-0.36-2.58-0.56-4.01c-1.11-9.58-2.85-19.07-5.23-28.41   c-2.89-10.11-6.46-15.25-10.55-15.25c-4.1,0-7.35,6.3-10.22,12.38c-3.03,6.41-5.88,12.47-10.84,12.47   c-7.9,0-11.42-15.58-15.12-31.93c-1.53-7.64-3.54-15.17-6.03-22.55c-2.52-6.68-5.19-10-8.22-10.31h-0.58   c-0.86,0.03-1.7,0.26-2.45,0.67c-3.3,1.51-5.66,6.06-7.88,15.16c-2.23,9.11-4.34,23.18-7.24,42.3c-1.29,8.62-2.74,18.39-4.45,29.37   c-0.03,0.21-0.02,0.42,0.04,0.63c0.06,0.2,0.16,0.39,0.29,0.55c0.14,0.16,0.32,0.29,0.51,0.38c0.2,0.09,0.41,0.13,0.62,0.13"/>
	<path class="st0" d="M133.1,322.75c-4.63-0.57-9.33,0.08-13.63,1.89c-0.52,0.2-1.07,0.31-1.63,0.31c-1.07,0-2.1-0.4-2.88-1.13   c-0.78-0.73-1.26-1.73-1.33-2.79c-0.05-0.84,0.16-1.68,0.59-2.41c0.44-0.72,1.09-1.3,1.86-1.64c4.13-1.86,8.61-2.83,13.14-2.85   h1.63c5.12,0.31,10.08,1.84,14.49,4.45c0.58,0.35,1.24,0.54,1.91,0.53c0.63,0.01,1.25-0.14,1.8-0.44c0.55-0.3,1.02-0.73,1.36-1.25   l1.38-1.98c0.29-0.38,0.49-0.81,0.61-1.27s0.14-0.94,0.06-1.4c-0.07-0.48-0.25-0.94-0.51-1.35c-0.26-0.41-0.6-0.76-1.01-1.03   c-5.71-4.01-12.5-6.18-19.48-6.23h-1.16c-6.66,0.24-13.09,2.45-18.5,6.35c-0.65,0.47-1.43,0.72-2.23,0.71   c-0.8,0-1.58-0.25-2.23-0.71c-5.4-3.89-11.83-6.1-18.48-6.35h-1.18c-7,0.02-13.83,2.18-19.57,6.19c-0.4,0.27-0.75,0.62-1.01,1.03   c-0.26,0.41-0.43,0.87-0.51,1.35c-0.08,0.47-0.05,0.95,0.06,1.41c0.12,0.46,0.33,0.89,0.63,1.26l1.31,1.94   c0.35,0.52,0.83,0.95,1.38,1.24c0.55,0.29,1.17,0.45,1.8,0.45c0.68,0,1.35-0.18,1.94-0.53c4.4-2.62,9.36-4.14,14.47-4.45h1.63   c4.53,0.02,9.01,0.99,13.14,2.85c0.81,0.33,1.49,0.91,1.95,1.65c0.46,0.74,0.67,1.61,0.61,2.49c-0.09,1.05-0.57,2.03-1.35,2.74   c-0.78,0.71-1.8,1.1-2.85,1.09c-0.56,0-1.11-0.11-1.63-0.31c-4.3-1.81-9-2.46-13.63-1.89c-4.4,0.69-8.58,2.42-12.18,5.03   c-3.61,2.62-6.54,6.05-8.57,10.02c-0.24,0.43-0.38,0.9-0.42,1.39c-0.04,0.49,0.03,0.98,0.2,1.44c0.16,0.5,0.42,0.96,0.78,1.34   c0.35,0.38,0.79,0.69,1.27,0.89l2.6,1.09c0.47,0.21,0.98,0.32,1.49,0.31c0.63,0,1.25-0.15,1.81-0.45c0.56-0.3,1.03-0.73,1.37-1.26   c1.5-2.43,3.46-4.53,5.78-6.19c2.32-1.66,4.95-2.84,7.73-3.47c1.42-0.29,2.87-0.44,4.32-0.45c3.41,0.03,6.78,0.83,9.84,2.34   c0.86,0.42,1.58,1.08,2.07,1.9c0.49,0.82,0.72,1.77,0.67,2.73c-0.13,2.23-1.76,3.54-4.45,3.54c-0.45,0.03-0.91,0.03-1.36,0   c-1.21-0.18-2.43-0.27-3.65-0.27c-2.47-0.01-4.92,0.39-7.26,1.18c-3.72,1.39-7.05,3.64-9.73,6.57c-2.67,2.93-4.61,6.45-5.66,10.28   c-0.15,0.5-0.18,1.02-0.1,1.53c0.08,0.51,0.26,1,0.55,1.43c0.31,0.47,0.72,0.85,1.2,1.14c0.48,0.29,1.02,0.46,1.58,0.51l1.4,0.22   c0.25,0.02,0.51,0.02,0.76,0c0.78,0.01,1.55-0.23,2.19-0.68s1.12-1.09,1.38-1.83c0.69-2.29,1.9-4.38,3.55-6.11   c1.65-1.73,3.68-3.05,5.93-3.84c1.44-0.47,2.94-0.71,4.45-0.71c0.82,0,1.64,0.07,2.45,0.2c1.57,0.27,3,1.08,4.02,2.31   c1.02,1.23,1.57,2.77,1.55,4.37c-0.11,2.58-0.24,5.48-0.36,8.26c-0.11,2.78-0.22,5.66-0.33,8.22c-0.1,2.23-0.99,4.35-2.51,5.98   c-1.52,1.63-3.58,2.67-5.8,2.92l-20.33,2.54c-0.81,0.09-1.56,0.47-2.11,1.08c-0.55,0.6-0.86,1.38-0.88,2.2v2.43   c0,0.19,0.08,0.37,0.21,0.5c0.13,0.13,0.31,0.21,0.5,0.21h74.78c0.19,0,0.37-0.08,0.5-0.21c0.13-0.13,0.21-0.32,0.21-0.5v-2.43   c-0.02-0.81-0.32-1.59-0.87-2.19c-0.54-0.6-1.29-0.99-2.09-1.08l-20.35-2.54c-2.22-0.26-4.27-1.29-5.79-2.93   c-1.52-1.63-2.41-3.75-2.51-5.98c0-2.58-0.22-5.48-0.33-8.3c-0.11-2.83-0.22-5.68-0.36-8.24c-0.02-1.59,0.53-3.14,1.55-4.37   c1.02-1.23,2.45-2.04,4.02-2.31c2.32-0.38,4.69-0.21,6.92,0.51c2.26,0.79,4.29,2.11,5.94,3.84c1.65,1.73,2.87,3.82,3.56,6.11   c0.22,0.79,0.71,1.49,1.37,1.98c0.67,0.49,1.48,0.74,2.3,0.71c0.25,0.02,0.5,0.02,0.76,0h0.53l0.91-0.13   c0.56-0.05,1.1-0.22,1.58-0.51c0.48-0.29,0.89-0.67,1.2-1.14c0.28-0.43,0.47-0.92,0.55-1.43c0.08-0.51,0.04-1.03-0.1-1.53   c-1.04-3.83-2.98-7.36-5.66-10.29c-2.68-2.93-6.01-5.18-9.73-6.57c-2.34-0.79-4.79-1.19-7.26-1.18c-1.22,0-2.44,0.09-3.65,0.27   c-0.45,0.03-0.91,0.03-1.36,0c-2.58,0-4.23-1.34-4.34-3.54c-0.09-0.99,0.13-1.99,0.62-2.85c0.49-0.86,1.24-1.56,2.14-1.98   c3.06-1.51,6.43-2.31,9.84-2.34c1.45,0,2.9,0.15,4.32,0.45c2.78,0.63,5.41,1.8,7.73,3.46c2.32,1.66,4.29,3.77,5.78,6.2   c0.35,0.53,0.82,0.96,1.37,1.26c0.56,0.3,1.18,0.46,1.81,0.45c0.52,0.01,1.04-0.1,1.51-0.31l2.61-1.09   c0.48-0.2,0.91-0.51,1.26-0.89c0.35-0.38,0.61-0.84,0.77-1.33c0.17-0.46,0.24-0.95,0.2-1.44c-0.04-0.49-0.18-0.96-0.42-1.39   c-2.02-3.97-4.96-7.4-8.57-10.02c-3.61-2.62-7.78-4.34-12.18-5.03"/>
	<path class="st0" d="M254.59,327.34h-17.25c-0.58,0.02-1.15-0.07-1.69-0.27c-0.54-0.2-1.03-0.52-1.45-0.91   c-0.42-0.4-0.75-0.88-0.97-1.41c-0.23-0.53-0.34-1.1-0.34-1.68v-15.9c0-0.8-0.32-1.57-0.89-2.14c-0.57-0.57-1.34-0.89-2.14-0.89   h-19.84c-0.8,0-1.57,0.32-2.14,0.89c-0.57,0.57-0.89,1.34-0.89,2.14v36.85c0,1.13-0.45,2.22-1.25,3.02   c-0.8,0.8-1.89,1.25-3.02,1.25h-7.95c-1.12-0.02-2.18-0.48-2.97-1.28s-1.22-1.87-1.22-2.99v-9.26c0-0.8-0.32-1.57-0.88-2.13   c-0.56-0.57-1.33-0.89-2.13-0.89h-16.41c-0.4,0-0.79,0.08-1.16,0.23c-0.37,0.15-0.7,0.38-0.98,0.66c-0.28,0.28-0.5,0.62-0.65,0.98   c-0.15,0.37-0.23,0.76-0.22,1.16v58.11c0,0.19,0.08,0.37,0.21,0.5c0.13,0.13,0.31,0.21,0.5,0.21h88.05c0.19,0,0.37-0.08,0.5-0.21   c0.13-0.13,0.21-0.31,0.21-0.5v-62.49c0-0.8-0.32-1.57-0.89-2.14c-0.57-0.57-1.34-0.89-2.14-0.89"/>
	<path class="st0" d="M187.71,262.37c1.45,0,2.89-0.17,4.3-0.51c5.7-1.47,8.77-5.77,11.47-9.55c2.69-3.78,5.05-7.1,9.35-7.19   c4.32,0,6.68,3.36,9.4,7.19c2.72,3.83,5.74,8.08,11.44,9.55c1.41,0.34,2.85,0.51,4.3,0.51c3.32,0.02,6.59-0.78,9.52-2.34   c2.93-1.55,5.43-3.81,7.27-6.57c2.58-4.26,3.38-9.36,2.23-14.2c-0.1-0.55-0.32-1.07-0.63-1.54c-0.31-0.46-0.72-0.86-1.19-1.16   c-0.21-0.11-0.45-0.16-0.69-0.16c-1.51,0-3.47,1.85-5.72,3.99c-3.36,3.18-7.55,7.15-12.85,7.15h-0.78   c-5.99-0.45-9.42-5.54-12.76-10.49c-2.87-4.25-5.59-8.28-9.55-8.33c-3.96-0.04-6.68,4.07-9.51,8.33   c-3.34,4.94-6.79,10.04-12.78,10.49h-0.8c-5.3,0-9.48-3.96-12.82-7.15c-2.23-2.23-4.21-3.99-5.72-3.99c-0.25,0-0.49,0.05-0.71,0.16   c-0.47,0.3-0.87,0.7-1.19,1.16c-0.31,0.46-0.53,0.98-0.64,1.53c-1.16,4.84-0.36,9.95,2.23,14.2c1.84,2.76,4.34,5.02,7.27,6.57   c2.93,1.55,6.2,2.36,9.52,2.34"/>
	<path class="st0" d="M187.72,290.26c1.45,0,2.89-0.17,4.3-0.51c5.7-1.47,8.77-5.77,11.47-9.55s5.05-7.1,9.35-7.17   c4.32,0,6.68,3.34,9.4,7.17s5.74,8.08,11.44,9.55c1.41,0.34,2.85,0.51,4.3,0.51c3.32,0.02,6.59-0.78,9.52-2.34   c2.93-1.55,5.43-3.81,7.27-6.57c2.58-4.26,3.38-9.36,2.23-14.2c-0.11-0.55-0.32-1.07-0.64-1.53c-0.31-0.46-0.72-0.86-1.19-1.16   c-0.22-0.1-0.45-0.15-0.69-0.16c-1.51,0-3.47,1.85-5.72,4.01c-3.36,3.18-7.55,7.15-12.85,7.15h-0.8   c-5.99-0.45-9.42-5.54-12.76-10.49c-2.87-4.25-5.59-8.28-9.55-8.33c-3.96-0.04-6.68,4.07-9.51,8.33   c-3.34,4.94-6.79,10.04-12.78,10.49h-0.8c-5.3,0-9.48-3.96-12.82-7.15c-2.23-2.23-4.21-4.01-5.72-4.01   c-0.24,0.01-0.49,0.06-0.71,0.16c-0.47,0.31-0.87,0.7-1.18,1.16c-0.31,0.46-0.53,0.98-0.64,1.53c-1.16,4.84-0.36,9.95,2.23,14.2   c1.84,2.76,4.34,5.02,7.27,6.57c2.93,1.55,6.2,2.36,9.52,2.34"/>
	<path class="st0" d="M187.72,234.45c1.45,0,2.89-0.17,4.3-0.51c5.7-1.47,8.77-5.77,11.47-9.55c2.69-3.78,5.05-7.1,9.35-7.19   c4.32,0,6.68,3.36,9.4,7.19c2.72,3.83,5.74,8.08,11.44,9.55c1.41,0.34,2.85,0.51,4.3,0.51c3.32,0.02,6.59-0.78,9.52-2.34   c2.93-1.55,5.43-3.81,7.27-6.57c2.58-4.26,3.38-9.36,2.23-14.2c-0.1-0.55-0.32-1.07-0.63-1.54c-0.31-0.46-0.72-0.86-1.19-1.16   c-0.21-0.11-0.45-0.16-0.69-0.16c-1.51,0-3.47,1.85-5.72,3.99c-3.36,3.18-7.55,7.15-12.85,7.15h-0.78   c-5.99-0.45-9.44-5.54-12.76-10.49c-2.83-4.23-5.52-8.33-9.51-8.33s-6.68,4.07-9.51,8.33c-3.34,4.94-6.79,10.04-12.78,10.49h-0.8   c-5.3,0-9.48-3.94-12.82-7.12c-2.23-2.23-4.21-4.01-5.72-4.01c-0.25,0-0.49,0.05-0.71,0.16c-0.47,0.3-0.87,0.7-1.19,1.16   c-0.31,0.46-0.53,0.98-0.64,1.53c-1.16,4.84-0.36,9.95,2.23,14.2c1.84,2.76,4.34,5.02,7.27,6.57c2.93,1.55,6.2,2.36,9.52,2.34"/>
</g>
</svg>